<svg width="70" height="70" viewBox="0 0 70 70" fill="none" xmlns="http://www.w3.org/2000/svg">
<path fill-rule="evenodd" clip-rule="evenodd" d="M35.0754 5.83334C19.0074 5.83334 5.98453 18.8563 5.98453 34.9242C5.98453 47.775 14.3174 58.6804 25.8791 62.5304C27.3345 62.7929 27.8595 61.8975 27.8595 61.1275C27.8595 60.4363 27.8362 58.6046 27.8274 56.1808C19.7337 57.9367 18.0245 52.2783 18.0245 52.2783C16.7062 48.9183 14.7958 48.0229 14.7958 48.0229C12.1562 46.2175 14.997 46.2583 14.997 46.2583C17.9195 46.4625 19.4508 49.2567 19.4508 49.2567C22.0466 53.7017 26.2641 52.4183 27.9149 51.6746C28.1804 49.7933 28.9387 48.51 29.767 47.7838C23.3095 47.0517 16.5195 44.555 16.5195 33.4046C16.5195 30.2342 17.6541 27.6325 19.5062 25.6025C19.2116 24.8646 18.2054 21.9042 19.7949 17.9025C19.7949 17.9025 22.2362 17.1179 27.7924 20.8804C30.1654 20.2349 32.6132 19.9054 35.0724 19.9004C37.5317 19.9044 39.9797 20.2339 42.3524 20.8804C47.9116 17.115 50.3499 17.9025 50.3499 17.9025C51.9395 21.9042 50.942 24.8646 50.6387 25.6025C52.5054 27.6325 53.6254 30.2313 53.6254 33.4046C53.6254 44.5842 46.8295 47.04 40.3487 47.7604C41.3841 48.6588 42.3174 50.4321 42.3174 53.1446C42.3174 57.0354 42.2824 60.1738 42.2824 61.1275C42.2824 61.9063 42.8016 62.8104 44.2862 62.5246C55.842 58.6688 64.1662 47.7721 64.1662 34.9242C64.1662 18.8563 51.1433 5.83334 35.0754 5.83334Z" fill="#CCCCCC"/>
</svg>
