<svg width="70" height="70" viewBox="0 0 70 70" fill="none" xmlns="http://www.w3.org/2000/svg">
<path d="M61.0955 24.2228C61.0661 22.0138 60.6526 19.8268 59.8735 17.7595C59.1978 16.0158 58.1659 14.4322 56.8435 13.1098C55.5212 11.7875 53.9376 10.7556 52.1939 10.0799C50.1532 9.31388 47.9973 8.89967 45.818 8.85492C43.0122 8.7295 42.1226 8.6945 35.0001 8.6945C27.8776 8.6945 26.9647 8.6945 24.1793 8.85492C22.001 8.89999 19.8461 9.3142 17.8064 10.0799C16.0624 10.7551 14.4785 11.7869 13.1561 13.1093C11.8338 14.4316 10.802 16.0155 10.1268 17.7595C9.35922 19.7986 8.9459 21.954 8.90471 24.1324C8.7793 26.9412 8.74138 27.8308 8.74138 34.9533C8.74138 42.0758 8.74138 42.9858 8.90471 45.7741C8.94846 47.9558 9.35971 50.1083 10.1268 52.1528C10.8031 53.8963 11.8357 55.4795 13.1585 56.8013C14.4813 58.1232 16.0653 59.1545 17.8093 59.8295C19.8435 60.6263 21.9987 61.0702 24.1822 61.142C26.991 61.2674 27.8805 61.3053 35.003 61.3053C42.1255 61.3053 43.0385 61.3053 45.8239 61.142C48.0031 61.0991 50.1591 60.6858 52.1997 59.9199C53.943 59.2435 55.5262 58.2113 56.8484 56.889C58.1706 55.5668 59.2029 53.9836 59.8793 52.2403C60.6464 50.1987 61.0576 48.0462 61.1014 45.8616C61.2268 43.0558 61.2647 42.1662 61.2647 35.0408C61.2589 27.9183 61.2589 27.0141 61.0955 24.2228ZM34.9826 48.4224C27.5335 48.4224 21.4989 42.3878 21.4989 34.9387C21.4989 27.4895 27.5335 21.4549 34.9826 21.4549C38.5587 21.4549 41.9884 22.8755 44.5171 25.4042C47.0458 27.9329 48.4664 31.3626 48.4664 34.9387C48.4664 38.5148 47.0458 41.9444 44.5171 44.4731C41.9884 47.0018 38.5587 48.4224 34.9826 48.4224ZM49.003 24.1003C48.59 24.1007 48.181 24.0197 47.7994 23.8618C47.4177 23.7039 47.071 23.4723 46.7789 23.1803C46.4869 22.8882 46.2553 22.5415 46.0974 22.1598C45.9396 21.7782 45.8585 21.3692 45.8589 20.9562C45.8589 20.5435 45.9402 20.1348 46.0981 19.7535C46.256 19.3722 46.4875 19.0258 46.7794 18.7339C47.0712 18.4421 47.4176 18.2106 47.7989 18.0527C48.1802 17.8948 48.5889 17.8135 49.0016 17.8135C49.4143 17.8135 49.823 17.8948 50.2042 18.0527C50.5855 18.2106 50.932 18.4421 51.2238 18.7339C51.5156 19.0258 51.7471 19.3722 51.9051 19.7535C52.063 20.1348 52.1443 20.5435 52.1443 20.9562C52.1443 22.6945 50.7385 24.1003 49.003 24.1003Z" fill="#CCCCCC"/>
<path d="M34.9829 43.6974C39.8202 43.6974 43.7416 39.776 43.7416 34.9387C43.7416 30.1013 39.8202 26.1799 34.9829 26.1799C30.1456 26.1799 26.2242 30.1013 26.2242 34.9387C26.2242 39.776 30.1456 43.6974 34.9829 43.6974Z" fill="#CCCCCC"/>
</svg>
