<svg width="70" height="70" viewBox="0 0 70 70" fill="none" xmlns="http://www.w3.org/2000/svg">
<path d="M26.3667 62.825C29.1667 63.6708 31.9958 64.1667 35 64.1667C42.7355 64.1667 50.1541 61.0938 55.624 55.624C61.0938 50.1541 64.1667 42.7355 64.1667 35C64.1667 31.1698 63.4123 27.3771 61.9465 23.8384C60.4807 20.2997 58.3323 17.0844 55.624 14.3761C52.9156 11.6677 49.7003 9.51928 46.1616 8.05352C42.6229 6.58775 38.8302 5.83334 35 5.83334C31.1698 5.83334 27.3771 6.58775 23.8384 8.05352C20.2997 9.51928 17.0844 11.6677 14.3761 14.3761C8.90624 19.8459 5.83334 27.2645 5.83334 35C5.83334 47.3958 13.6208 58.0417 24.6167 62.2417C24.3542 59.9667 24.0917 56.2042 24.6167 53.6083L27.9708 39.2C27.9708 39.2 27.125 37.5083 27.125 34.825C27.125 30.8 29.6333 27.7958 32.4917 27.7958C35 27.7958 36.1667 29.6333 36.1667 31.9958C36.1667 34.5042 34.5042 38.0917 33.6583 41.5333C33.1625 44.3917 35.175 46.9 38.0917 46.9C43.2833 46.9 47.3083 41.3583 47.3083 33.5417C47.3083 26.5417 42.2917 21.7583 35.0875 21.7583C26.8625 21.7583 22.0208 27.8833 22.0208 34.3292C22.0208 36.8375 22.8375 39.375 24.1792 41.0375C24.4417 41.2125 24.4417 41.4458 24.3542 41.8833L23.5083 45.0625C23.5083 45.5583 23.1875 45.7333 22.6917 45.3833C18.9583 43.75 16.8 38.4417 16.8 34.1542C16.8 24.9375 23.3333 16.5667 35.9333 16.5667C45.9667 16.5667 53.7833 23.7708 53.7833 33.3375C53.7833 43.3708 47.5708 51.4208 38.675 51.4208C35.8458 51.4208 33.075 49.9042 32.0833 48.125L30.1292 55.0375C29.4583 57.5458 27.6208 60.9 26.3667 62.9125V62.825Z" fill="#CCCCCC"/>
</svg>
